# AST/ASF file generated using VICON BodyLanguage
# -----------------------------------------------
:version 1.10
:name VICON
:units
  mass 1.0
  length 0.45
  angle deg
:documentation
   .ast/.asf automatically generated from VICON data using
   VICON BodyBuilder and BodyLanguage model FoxedUp or BRILLIANT.MOD
:root
   order TX TY TZ RX RY RZ
   axis XYZ
   position 0 0 0  
   orientation 0 0 0 
:bonedata
  begin
     id 1 
     name lhipjoint
     direction 0.690799 -0.707083 0.151096 
     length 2.54797 
     axis 0 0 0  XYZ
  end
  begin
     id 2 
     name lfemur
     direction 0.34202 -0.939693 0  
     length 7.21646  
     axis 0 0 20  XYZ
    dof rx ry rz
    limits (-160.0 20.0)
           (-70.0 70.0)
           (-60.0 70.0)
  end
  begin
     id 3 
     name ltibia
     direction 0.34202 -0.939693 0   
     length 8.16759   
     axis 0 0 20   XYZ
    dof rx
    limits (-10.0 170.0)
  end
  begin
     id 4 
     name lfoot
     direction 0.0487203 -0.133858 0.989802   
     length 1.93375   
     axis -90 7.62852e-016 20   XYZ
    dof rx rz
    limits (-45.0 90.0)
           (-70.0 20.0)
  end
  begin
     id 5 
     name ltoes
     direction 1.53453e-011 -4.21783e-011 1   
     length 0.979747   
     axis -90 7.62852e-016 20   XYZ
    dof rx
    limits (-90.0 20.0)
  end
  begin
     id 6 
     name rhipjoint
     direction -0.694693 -0.703425 0.150315   
     length 2.56122  
     axis 0 0 0  XYZ 
  end
  begin
     id 7 
     name rfemur
     direction -0.34202 -0.939693 0   
     length 7.36786   
     axis 0 0 -20   XYZ
    dof rx ry rz
    limits (-160.0 20.0)
           (-70.0 70.0)
           (-70.0 60.0)
  end
  begin
     id 8 
     name rtibia
     direction -0.34202 -0.939693 0   
     length 8.07288   
     axis 0 0 -20   XYZ
    dof rx
    limits (-10.0 170.0)
 end
 begin
     id 9 
     name rfoot
     direction -0.0428397 -0.117701 0.992125   
     length 1.88295  
     axis -90 -7.62852e-016 -20   XYZ
    dof rx rz
    limits (-45.0 90.0)
           (-20.0 70.0)
  end
  begin
     id 10 
     name rtoes
     direction -1.53456e-011 -4.2187e-011 1   
     length 0.955578   
     axis -90 -7.62852e-016 -20   XYZ
    dof rx
    limits (-90.0 20.0)
  end
  begin
     id 11 
     name lowerback
     direction 0.0288145 0.999398 -0.0193241   
     length 1.92149   
     axis 0 0 0   XYZ
    dof rx ry rz
    limits (-20.0 45.0)
           (-30.0 30.0)
           (-30.0 30.0)
  end
  begin
     id 12 
     name upperback
     direction 0.0233784 0.998099 0.0570278   
     length 1.90435   
     axis 0 0 0   XYZ
    dof rx ry rz
    limits (-20.0 45.0)
           (-30.0 30.0)
           (-30.0 30.0)
  end
  begin
     id 13 
     name thorax
     direction 0.0096694 0.997833 0.0650817   
     length 1.9111   
     axis 0 0 0   XYZ
    dof rx ry rz
    limits (-20.0 45.0)
           (-30.0 30.0)
           (-30.0 30.0)
  end
  begin
     id 14 
     name lowerneck
     direction 0.00516803 0.999916 0.0118722   
     length 1.74664   
     axis 0 0 0   XYZ
    dof rx ry rz
    limits (-20.0 45.0)
           (-30.0 30.0)
           (-30.0 30.0)
  end
  begin
     id 15 
     name upperneck
     direction -0.0510851 0.996117 -0.071696   
     length 1.68498   
     axis 0 0 0   XYZ
    dof rx ry rz
    limits (-20.0 45.0)
           (-30.0 30.0)
           (-30.0 30.0)
  end
  begin
     id 16
     name head
     direction -0.019188 0.999436 -0.0275702  
     length 1.83483  
     axis 0 0 0   XYZ
    dof rx ry rz
    limits (-20.0 45.0)
           (-30.0 30.0)
           (-30.0 30.0)
  end
  begin
     id 17 
     name lclavicle
     direction 0.967006 0.248456 -0.0562957  
     length 3.39395  
     axis 0 0 0   XYZ
    dof ry rz
    limits (-20.0 10.0)
           (0.0 20.0)
  end
  begin
     id 18 
     name lhumerus
     direction 1 -4.48962e-011 -5.62711e-019   
     length 5.24318   
     axis 180 -30 -90   XYZ
    dof rx ry rz
    limits (-60.0 90.0)
           (-90.0 90.0)
           (-90.0 90.0)
  end
  begin
     id 19
     name lradius
     direction 1 -4.48966e-011 7.90625e-027   
     length 2.98999   
     axis 180 -30 -90   XYZ
    dof rx
    limits (-10.0 170.0)
  end
  begin
     id 20
     name lwrist
     direction 1 -4.48959e-011 1.61068e-026   
     length 1.49499   
     axis -9.31229e-015 90 90   XYZ
    dof ry
    limits (-180.0 0.0)
 end
  begin
     id 21 
     name lhand
     direction 1 -4.49017e-011 3.22136e-026   
     length 0.726745   
     axis -2.0555e-014 90 90   XYZ
    dof rx rz
    limits (-90.0 90.0)
           (-45.0 45.0)
  end
  begin
     id 22 
     name lfingers
     direction 1 -4.4898e-011 6.44272e-026   
     length 0.58592   
     axis -4.11101e-014 90 90   XYZ
    dof rx
    limits (0.0 90.0)
  end
  begin
     id 23
     name lthumb
     direction 0.707107 -6.34922e-011 0.707107   
     length 0.841268   
     axis -90 45 2.85299e-015   XYZ
    dof rx rz
    limits (-45.0 45.0)
           (-45.0 45.0)
  end
  begin
     id 24 
     name rclavicle
     direction -0.972232 0.230238 0.0419005   
     length 3.40416  
     axis 0 0 0   XYZ 
    dof ry rz
    limits (-10.0 20.0)
           (-20.0 0.0)
  end
  begin
     id 25 
     name rhumerus
     direction -1 -4.48976e-011 2.48487e-027  
     length 5.37045   
     axis 180 30 90   XYZ
    dof rx ry rz
    limits (-90.0 60.0)
           (-90.0 90.0)
           (-90.0 90.0)
  end
  begin
     id 26 
     name rradius
     direction -1 -4.48942e-011 7.87951e-027   
     length 2.92792   
     axis 180 30 90   XYZ
    dof rx
    limits (-10.0 170.0)
  end
  begin
     id 27 
     name rwrist
     direction -1 -4.48969e-011 1.61068e-026   
     length 1.46396   
     axis -9.31229e-015 -90 -90   XYZ
    dof ry
    limits (-180.0 0.0)
  end
  begin
     id 28
     name rhand
     direction -1 -4.49043e-011 3.22136e-026   
     length 0.784497   
     axis -2.0555e-014 -90 -90   XYZ
    dof rx rz
    limits (-90.0 90.0)
           (-45.0 45.0)
  end
  begin
     id 29
     name rfingers
     direction -1 -4.48823e-011 6.44272e-026   
     length 0.632482   
     axis -4.11101e-014 -90 -90   XYZ
    dof rx
    limits (0.0 90.0)
  end
  begin
     id 30
     name rthumb
     direction -0.707107 -6.34923e-011 0.707107   
     length 0.908121   
     axis -90 -45 -2.85299e-015   XYZ
    dof rx rz
    limits (-45.0 45.0)
           (-45.0 45.0)
  end
:hierarchy
  begin
    root lhipjoint rhipjoint lowerback
    lhipjoint lfemur
    lfemur ltibia
    ltibia lfoot
    lfoot ltoes
    rhipjoint rfemur
    rfemur rtibia
    rtibia rfoot
    rfoot rtoes
    lowerback upperback
    upperback thorax
    thorax lowerneck lclavicle rclavicle
    lowerneck upperneck
    upperneck head
    lclavicle lhumerus
    lhumerus lradius
    lradius lwrist
    lwrist lhand lthumb
    lhand lfingers
    rclavicle rhumerus
    rhumerus rradius
    rradius rwrist
    rwrist rhand rthumb
    rhand rfingers
  end

#!OML:ASF F:\VICON\USERDATA\INSTALL\rory3\rory3.ASF
:FULLY-SPECIFIED
:DEGREES
1623
root 0.862899 18.1932 0.382617 34.7488 1.36251 1.87487
lowerback 16.0239 -0.0023361 6.8251
upperback -4.14636 2.21959 5.78389
thorax -13.7599 0.779504 2.02212
lowerneck 4.61961 -2.43368 4.61047
upperneck -20.7929 -6.23201 -16.2326
head -7.75941 -2.02122 -5.70693
rclavicle -1.59028e-014 -2.8625e-014
rhumerus -31.781 8.51328 -86.0846
rradius 130.019
rwrist 36.679
rhand 5.49437 4.34458
rfingers 7.12502
rthumb 30.8414 -23.087
lclavicle -1.59028e-014 -2.8625e-014
lhumerus -37.3863 -8.58494 91.9303
lradius 124.51
lwrist -22.3562
lhand -12.2278 22.8024
lfingers 7.12502
lthumb 13.8375 52.3221
rfemur -49.5252 38.1493 -17.806
rtibia 10.8637
rfoot -61.974 -27.7791
rtoes 54.7124
lfemur -41.0724 -19.3228 -9.02949
ltibia 11.5956
lfoot 0.446497 24.7016
ltoes -7.90387
1624
root 0.863031 18.1981 0.396323 34.7378 1.34601 1.88221
lowerback 15.8833 -0.0415327 6.84824
upperback -4.20806 2.16262 5.79129
thorax -13.7478 0.751526 2.03463
lowerneck 4.65207 -2.3995 4.54963
upperneck -20.7179 -6.1685 -16.1828
head -7.73014 -1.9917 -5.68093
rclavicle 3.18055e-015 1.43125e-014
rhumerus -31.9873 8.53099 -86.1405
rradius 130.083
rwrist 36.5565
rhand 5.45903 4.34
rfingers 7.12502
rthumb 30.8077 -23.0979
lclavicle 3.18055e-015 1.43125e-014
lhumerus -37.5295 -8.55035 91.9415
lradius 124.482
lwrist -22.3544
lhand -12.2691 23.0168
lfingers 7.12502
lthumb 13.7976 52.5392
rfemur -49.214 37.6818 -17.1818
rtibia 11.0435
rfoot -61.0741 -28.284
rtoes 54.321
lfemur -40.9239 -19.3728 -9.04298
ltibia 11.4424
lfoot 0.433619 24.7775
ltoes -7.73194
1625
root 0.860541 18.2026 0.405901 34.6919 1.16761 1.97714
lowerback 15.8316 -0.0144914 6.62055
upperback -4.27585 2.14752 5.76159
thorax -13.8005 0.760938 2.13528
lowerneck 4.64802 -2.35339 4.52021
upperneck -20.618 -6.08131 -16.1408
head -7.68389 -1.95514 -5.66472
rclavicle 6.36111e-015 -3.18055e-014
rhumerus -32.1543 8.54455 -86.1814
rradius 130.098
rwrist 36.4172
rhand 5.3378 4.42552
rfingers 7.12502
rthumb 30.6921 -23.0342
lclavicle 6.36111e-015 -3.18055e-014
lhumerus -37.6932 -8.56559 92.0009
lradius 124.482
lwrist -22.3419
lhand -12.2888 23.158
lfingers 7.12502
lthumb 13.7786 52.6818
rfemur -48.7388 36.904 -16.3353
rtibia 11.2541
rfoot -59.4995 -28.8945
rtoes 53.808
lfemur -40.7351 -19.3709 -9.23026
ltibia 11.3015
lfoot 0.408361 24.8648
ltoes -7.23646
1626
root 0.858739 18.2058 0.419301 34.571 0.940328 2.09817
lowerback 15.79 0.0179426 6.37548
upperback -4.32777 2.12965 5.68797
thorax -13.8384 0.768437 2.1961
lowerneck 4.58773 -2.29971 4.55178
upperneck -20.4408 -5.97715 -16.16
head -7.60278 -1.91566 -5.67997
rclavicle 2.54444e-014 -5.56597e-014
rhumerus -32.3154 8.54297 -86.2677
rradius 130.152
rwrist 36.3256
rhand 5.3384 4.54163
rfingers 7.12502
rthumb 30.6927 -22.918
lclavicle 2.54444e-014 -5.56597e-014
lhumerus -37.8212 -8.64218 92.0224
lradius 124.526
lwrist -22.3863
lhand -12.089 23.327
lfingers 7.12502
lthumb 13.9712 52.8376
rfemur -48.2949 36.2683 -15.613
rtibia 11.5271
rfoot -58.1681 -29.0513
rtoes 53.5263
lfemur -40.4446 -19.3891 -9.49373
ltibia 11.1604
lfoot 0.505849 24.9641
ltoes -7.48917
1627
root 0.856384 18.2082 0.436525 34.4419 0.780877 2.13023
lowerback 15.712 0.0224105 6.22634
upperback -4.39618 2.09702 5.65069
thorax -13.8734 0.763147 2.24879
lowerneck 4.58428 -2.26826 4.52654
upperneck -20.2952 -5.90785 -16.134
head -7.54472 -1.88855 -5.66695
rclavicle 1.59028e-014 3.49861e-014
rhumerus -32.5088 8.61267 -86.4072
rradius 130.228
rwrist 36.2507
rhand 5.3192 4.56457
rfingers 7.12502
rthumb 30.6744 -22.8984
lclavicle 1.59028e-014 3.49861e-014
lhumerus -37.9376 -8.65371 92.0308
lradius 124.548
lwrist -22.4423
lhand -11.8919 23.4947
lfingers 7.12502
lthumb 14.1612 52.992
rfemur -47.9581 35.8292 -14.9723
rtibia 11.8074
rfoot -57.3916 -28.7265
rtoes 53.5743
lfemur -40.1121 -19.2961 -9.72256
ltibia 11.0306
lfoot 0.581569 24.9489
ltoes -7.65102
1628
root 0.85537 18.2126 0.453848 34.269 0.717603 2.18373
lowerback 15.6323 -0.0146208 6.13038
upperback -4.45222 2.01861 5.61362
thorax -13.8914 0.732522 2.28378
lowerneck 4.55906 -2.23422 4.4594
upperneck -20.1302 -5.81882 -16.0196
head -7.47069 -1.85758 -5.61662
rclavicle -2.22639e-014 -3.65764e-014
rhumerus -32.6567 8.67145 -86.5203
rradius 130.333
rwrist 36.1648
rhand 5.07178 4.47134
rfingers 7.12502
rthumb 30.4384 -23.0356
lclavicle -2.22639e-014 -3.65764e-014
lhumerus -38.0056 -8.661 92.0222
lradius 124.537
lwrist -22.4878
lhand -11.7638 23.694
lfingers 7.12502
lthumb 14.2846 53.1826
rfemur -47.4595 35.3399 -14.2223
rtibia 11.9944
rfoot -56.3677 -29.0973
rtoes 53.1805
lfemur -39.7839 -19.2576 -9.95658
ltibia 10.9882
lfoot 0.440265 24.9055
ltoes -7.24893
1629
root 0.85465 18.2199 0.473484 34.0998 0.661471 2.24312
lowerback 15.5114 -0.0486172 6.05976
upperback -4.51836 1.9451 5.56806
thorax -13.895 0.701627 2.29343
lowerneck 4.50182 -2.19839 4.23095
upperneck -19.9236 -5.71821 -15.7948
head -7.37 -1.82051 -5.49919
rclavicle -1.59028e-015 -7.4743e-014
rhumerus -32.7983 8.71302 -86.539
rradius 130.457
rwrist 36.1006
rhand 4.53759 4.48188
rfingers 7.12502
rthumb 29.9288 -23.1183
lclavicle -1.59028e-015 -7.4743e-014
lhumerus -38.0733 -8.68361 92.0131
lradius 124.519
lwrist -22.5032
lhand -11.6862 23.8892
lfingers 7.12502
lthumb 14.3594 53.3726
rfemur -46.8249 34.7166 -13.3475
rtibia 12.0659
rfoot -54.8761 -29.9945
rtoes 52.4725
lfemur -39.5323 -19.2783 -10.1547
ltibia 11.0695
lfoot 0.312289 24.8963
ltoes -7.10667
1630
root 0.850239 18.2278 0.494883 33.914 0.604344 2.1666
lowerback 15.3325 -0.0419727 6.01832
upperback -4.56585 1.92968 5.56052
thorax -13.842 0.698118 2.31225
lowerneck 4.38888 -2.17286 4.02912
upperneck -19.6631 -5.63342 -15.6278
head -7.24615 -1.7931 -5.40452
rclavicle 0 3.65764e-014
rhumerus -32.8315 8.66444 -86.5112
rradius 130.637
rwrist 36.0367
rhand 4.77163 4.54133
rfingers 7.12502
rthumb 30.1521 -23.0183
lclavicle 0 3.65764e-014
lhumerus -38.1324 -8.73531 92.0581
lradius 124.452
lwrist -22.563
lhand -11.6965 24.0801
lfingers 7.12502
lthumb 14.3495 53.5642
rfemur -46.2402 34.1242 -12.3397
rtibia 12.1613
rfoot -53.2441 -30.8091
rtoes 51.6413
lfemur -39.2627 -19.2769 -10.1751
ltibia 11.124
lfoot 0.207473 24.9931
ltoes -6.98625
1631
root 0.840589 18.2333 0.517529 33.5908 0.692326 1.99257
lowerback 15.2448 -0.0569724 6.06338
upperback -4.58003 1.91718 5.6084
thorax -13.8066 0.691734 2.34407
lowerneck 4.28984 -2.17185 3.93099
upperneck -19.4106 -5.59395 -15.5655
head -7.13809 -1.78619 -5.3615
rclavicle 9.54166e-015 -3.02153e-014
rhumerus -32.7786 8.56898 -86.4965
rradius 130.911
rwrist 35.9745
rhand 5.50608 4.47327
rfingers 7.12502
rthumb 30.8526 -22.9562
lclavicle 9.54166e-015 -3.02153e-014
lhumerus -38.2171 -8.84519 92.1422
lradius 124.404
lwrist -22.6563
lhand -11.7081 24.2202
lfingers 7.12502
lthumb 14.3383 53.705
rfemur -45.6729 33.986 -11.4553
rtibia 12.2482
rfoot -52.4339 -31.2029
rtoes 51.1298
lfemur -38.8641 -19.2675 -10.0843
ltibia 11.1769
lfoot 0.0140995 25.0075
ltoes -6.69583
1632
root 0.832588 18.2359 0.541474 33.2635 0.875536 2.00047
lowerback 15.1783 -0.131076 6.0987
upperback -4.63963 1.8232 5.60716
thorax -13.8358 0.644592 2.35002
lowerneck 4.2079 -2.16441 3.72732
upperneck -19.1292 -5.53577 -15.4159
head -7.01801 -1.76967 -5.27073
rclavicle -1.59028e-015 -2.70347e-014
rhumerus -32.8307 8.53066 -86.4787
rradius 131.235
rwrist 35.8947
rhand 5.65594 4.32244
rfingers 7.12502
rthumb 30.9954 -23.0799
lclavicle -1.59028e-015 -2.70347e-014
lhumerus -38.3231 -8.96544 92.2225
lradius 124.361
lwrist -22.7079
lhand -11.6029 24.2011
lfingers 7.12502
lthumb 14.4397 53.6788
rfemur -44.9284 33.7199 -10.647
rtibia 12.2351
rfoot -51.8769 -31.1955
rtoes 50.9451
lfemur -38.5002 -19.3035 -10.2096
ltibia 11.3282
lfoot -0.056323 24.8383
ltoes -7.02702
1633
root 0.827227 18.2397 0.56532 33.0145 0.997837 2.03605
lowerback 15.1086 -0.213927 6.11592
upperback -4.7794 1.71222 5.54239
thorax -13.9554 0.585795 2.30253
lowerneck 4.10864 -2.12528 3.53297
upperneck -18.7441 -5.40801 -15.2215
head -6.85362 -1.72857 -5.16958
rclavicle 7.95139e-016 1.43125e-014
rhumerus -33.0944 8.55125 -86.5834
rradius 131.564
rwrist 35.7915
rhand 5.57445 4.15216
rfingers 7.12502
rthumb 30.9177 -23.265
lclavicle 7.95139e-016 1.43125e-014
lhumerus -38.5153 -9.07371 92.2052
lradius 124.344
lwrist -22.7291
lhand -11.5386 23.8137
lfingers 7.12502
lthumb 14.5016 53.2869
rfemur -44.195 33.2306 -9.80554
rtibia 12.1936
rfoot -50.9475 -31.3464
rtoes 50.6075
lfemur -38.2116 -19.319 -10.3757
ltibia 11.4939
lfoot -0.174557 24.7154
ltoes -7.12621
